<svg xmlns="http://www.w3.org/2000/svg" style="display: none;">
    <!-- Иконка пользователя -->
    <symbol id="icon-user" viewBox="0 0 24 24" fill="currentColor">
        <path d="M12 2C9.243 2 7 4.243 7 7s2.243 5 5 5 5-2.243 5-5-2.243-5-5-5zM12 12c-4.411 0-8 1.79-8 4v2h16v-2c0-2.21-3.589-4-8-4z"></path>
    </symbol>
    <!-- Иконка замка -->
    <symbol id="icon-lock" viewBox="0 0 24 24" fill="currentColor">
        <path d="M17 8V6c0-3.314-2.686-6-6-6S5 2.686 5 6v2H3v16h18V8h-4zm-6 3c-1.104 0-2-.896-2-2s.896-2 2-2 2 .896 2 2-.896 2-2 2z"></path>
    </symbol>
    <!-- Иконка темы -->
    <symbol id="icon-theme" viewBox="0 0 24 24" fill="currentColor">
        <path d="M12 2a10 10 0 1 0 10 10A10.012 10.012 0 0 0 12 2zm0 18a8 8 0 1 1 8-8 8.009 8.009 0 0 1-8 8z"></path>
    </symbol>
</svg>
