<svg xmlns="http://www.w3.org/2000/svg" style="display: none;">
    <!-- Иконка Книга с рецептами -->
    <symbol id="icon-recipe-book" viewBox="0 0 24 24">
        <path d="M18 2H6c-1.1 0-2 .9-2 2v16c0 1.1.9 2 2 2h12c.55 0 1-.45 1-1V3c0-.55-.45-1-1-1zm-1 16H7v-1h10v1zm0-3H7v-1h10v1zm0-3H7v-1h10v1zm0-3H7V8h10v1z"/>
    </symbol>

    <!-- Иконка Лайк (Сердце) -->
    <symbol id="icon-like" viewBox="0 0 24 24">
        <path d="M12 21.35l-1.45-1.32C5.4 15.36 2 12.28 2 8.5 2 5.42 4.42 3 7.5 3c1.74 0 3.41.81 4.5 2.09C13.09 3.81 14.76 3 16.5 3 19.58 3 22 5.42 22 8.5c0 3.78-3.4 6.86-8.55 11.54L12 21.35z"/>
    </symbol>

    <!-- Иконка Комментарий -->
    <symbol id="icon-comment" viewBox="0 0 24 24">
        <path d="M21 6c0-1.1-.9-2-2-2H5c-1.1 0-2 .9-2 2v10c0 1.1.9 2 2 2h4v4l4-4h6c1.1 0 2-.9 2-2V6z"/>
    </symbol>
</svg>
