<svg xmlns="http://www.w3.org/2000/svg" style="display: none;">
  <symbol id="icon-home" viewBox="0 0 24 24">
    <path d="M10 20v-6h4v6h5v-8h3L12 3 2 12h3v8z"/>
  </symbol>
  <symbol id="icon-sun" viewBox="0 0 24 24">
    <path d="M6.76 4.84l-1.8-1.79-1.41 1.41 1.79 1.8 1.42-1.42zM1 11h3v2H1v-2zm18 0h3v2h-3v-2zM11 1h2v3h-2V1zm0 18h2v3h-2v-3zm9.24-15.17l1.41 1.41-1.79 1.8-1.42-1.42 1.8-1.79zM4.84 17.24l-1.79 1.8 1.41 1.41 1.8-1.79-1.42-1.42zM12 5.5A6.5 6.5 0 0118.5 12 6.5 6.5 0 0112 18.5 6.5 6.5 0 015.5 12 6.5 6.5 0 0112 5.5m0-2A8.5 8.5 0 103.5 12 8.5 8.5 0 0012 3.5z"/>
  </symbol>
  <symbol id="icon-moon" viewBox="0 0 24 24">
    <path d="M20 15.31A9 9 0 1112.69 4 7 7 0 0020 15.31z"/>
  </symbol>
  <symbol id="icon-food" viewBox="0 0 24 24">
    <path d="M12 2C7.03 2 3 6.03 3 11s4.03 9 9 9 9-4.03 9-9-4.03-9-9-9zM12 18c-3.31 0-6-2.69-6-6s2.69-6 6-6 6 2.69 6 6-2.69 6-6 6z"/>
  </symbol>
  <symbol id="icon-dumbbell" viewBox="0 0 24 24">
    <path d="M3 10h2v4H3v-4zm16 0h2v4h-2v-4zM6 9h12v6H6V9zm8 1v4h-4v-4h4zm5-5h2v2h-2V5zM3 5h2v2H3V5zm0 12h2v2H3v-2zm16 0h2v2h-2v-2z"/>
  </symbol>
</svg>
